<svg preserveAspectRatio="none" width="100%" height="100%" overflow="visible" style="display: block;" viewBox="0 0 18 16.7442" fill="none" xmlns="http://www.w3.org/2000/svg">
<g id="microsoft-teams.svg" clip-path="url(#clip0_1457_1250)">
<path id="Vector" d="M12.5552 6.27907H17.2047C17.6439 6.27907 18 6.63516 18 7.07442V11.3094C18 12.9238 16.6913 14.2326 15.0769 14.2326H15.0631C13.4487 14.2328 12.1398 12.9242 12.1395 11.3099C12.1395 11.3097 12.1395 11.3096 12.1395 11.3094V6.69475C12.1395 6.46517 12.3256 6.27907 12.5552 6.27907Z" fill="var(--fill-0, #5059C9)"/>
<path id="Vector_2" d="M15.6977 5.44186C16.738 5.44186 17.5814 4.59849 17.5814 3.55814C17.5814 2.51779 16.738 1.67442 15.6977 1.67442C14.6573 1.67442 13.814 2.51779 13.814 3.55814C13.814 4.59849 14.6573 5.44186 15.6977 5.44186Z" fill="var(--fill-0, #5059C9)"/>
<path id="Vector_3" d="M9.83721 5.44187C11.3399 5.44187 12.5581 4.22366 12.5581 2.72093C12.5581 1.2182 11.3399 0 9.83721 0C8.33448 0 7.11627 1.2182 7.11627 2.72093C7.11627 4.22366 8.33448 5.44187 9.83721 5.44187Z" fill="var(--fill-0, #7B83EB)"/>
<path id="Vector_4" d="M13.4653 6.27907H5.79056C5.35653 6.28981 5.01319 6.65001 5.02326 7.08405V11.9143C4.96265 14.519 7.02333 16.6804 9.62791 16.7442C12.2325 16.6804 14.2932 14.519 14.2326 11.9143V7.08405C14.2426 6.65001 13.8993 6.28981 13.4653 6.27907Z" fill="var(--fill-0, #7B83EB)"/>
<path id="Vector_5" opacity="0.1" d="M10.0465 6.27907V13.0479C10.0444 13.3583 9.85633 13.6372 9.5693 13.7553C9.47792 13.794 9.3797 13.8139 9.28047 13.814H5.39163C5.33721 13.6758 5.28698 13.5377 5.24511 13.3954C5.09858 12.915 5.02381 12.4157 5.02325 11.9135V7.08279C5.01319 6.64944 5.35596 6.28981 5.7893 6.27907H10.0465Z" fill="var(--fill-0, black)"/>
<path id="Vector_6" opacity="0.2" d="M9.62791 6.27907V13.4665C9.6279 13.5657 9.60796 13.664 9.5693 13.7553C9.45112 14.0424 9.17226 14.2305 8.86186 14.2326H5.58837C5.51721 14.0944 5.45023 13.9563 5.39163 13.814C5.33302 13.6716 5.28698 13.5377 5.24511 13.3954C5.09858 12.915 5.02381 12.4157 5.02325 11.9135V7.08279C5.01319 6.64944 5.35596 6.28981 5.7893 6.27907H9.62791Z" fill="var(--fill-0, black)"/>
<path id="Vector_7" opacity="0.2" d="M9.62791 6.27907V12.6293C9.62472 13.0511 9.28362 13.3922 8.86186 13.3954H5.24512C5.09859 12.915 5.02382 12.4157 5.02326 11.9135V7.08279C5.01319 6.64944 5.35597 6.28981 5.7893 6.27907H9.62791Z" fill="var(--fill-0, black)"/>
<path id="Vector_8" opacity="0.2" d="M9.2093 6.27907V12.6293C9.20611 13.0511 8.86501 13.3922 8.44325 13.3954H5.24512C5.09859 12.915 5.02382 12.4157 5.02326 11.9135V7.08279C5.01319 6.64944 5.35597 6.28981 5.7893 6.27907H9.2093Z" fill="var(--fill-0, black)"/>
<path id="Vector_9" opacity="0.1" d="M10.0465 4.11489V5.43349C9.97535 5.43768 9.90837 5.44187 9.83721 5.44187C9.76604 5.44187 9.69907 5.43768 9.6279 5.43349C9.48661 5.42412 9.34647 5.4017 9.2093 5.36652C8.36162 5.16577 7.66131 4.57128 7.32558 3.76745C7.26781 3.63246 7.22297 3.49229 7.19162 3.34885H9.28046C9.70287 3.35045 10.0449 3.69247 10.0465 4.11489Z" fill="var(--fill-0, black)"/>
<path id="Vector_10" opacity="0.2" d="M9.62791 4.53349V5.43349C9.48661 5.42412 9.34648 5.4017 9.20931 5.36652C8.36163 5.16577 7.66131 4.57128 7.32559 3.76745H8.86186C9.28427 3.76905 9.6263 4.11108 9.62791 4.53349Z" fill="var(--fill-0, black)"/>
<path id="Vector_11" opacity="0.2" d="M9.62791 4.53349V5.43349C9.48661 5.42412 9.34648 5.4017 9.20931 5.36652C8.36163 5.16577 7.66131 4.57128 7.32559 3.76745H8.86186C9.28427 3.76905 9.6263 4.11108 9.62791 4.53349Z" fill="var(--fill-0, black)"/>
<path id="Vector_12" opacity="0.2" d="M9.2093 4.53349V5.36651C8.36162 5.16577 7.66131 4.57128 7.32558 3.76744H8.44325C8.86567 3.76905 9.20769 4.11108 9.2093 4.53349Z" fill="var(--fill-0, black)"/>
<path id="Vector_13" d="M0.767298 3.76744H8.44199C8.86577 3.76744 9.20929 4.11098 9.20929 4.53474V12.2094C9.20929 12.6332 8.86576 12.9767 8.44199 12.9767H0.767298C0.343528 12.9767 0 12.6332 0 12.2094V4.53474C0 4.11098 0.343536 3.76744 0.767298 3.76744Z" fill="url(#paint0_linear_1457_1250)"/>
<path id="Vector_14" d="M6.624 6.68847H5.08981V10.8661H4.11238V6.68847H2.58531V5.87805H6.624V6.68847Z" fill="var(--fill-0, white)"/>
</g>
<defs>
<linearGradient id="paint0_linear_1457_1250" x1="1.59984" y1="3.16789" x2="7.60946" y2="13.5763" gradientUnits="userSpaceOnUse">
<stop stop-color="#5A62C3"/>
<stop offset="0.5" stop-color="#4D55BD"/>
<stop offset="1" stop-color="#3940AB"/>
</linearGradient>
<clipPath id="clip0_1457_1250">
<rect width="18" height="16.7442" fill="white"/>
</clipPath>
</defs>
</svg>
